<svg width="257" height="452" viewBox="0 0 257 452" fill="none" xmlns="http://www.w3.org/2000/svg">
<path d="M113.954 1C112.457 13.2891 114.653 17.885 115.452 19.2837C120.043 27.7762 130.025 30.3739 136.114 31.8726C141.604 33.2713 151.686 34.8699 183.228 27.976C201.795 23.8797 206.386 21.5817 219.163 21.0821C230.043 20.6825 238.229 20.4827 245.216 25.8779C255.697 33.9707 255.896 48.9574 255.996 53.1536C256.096 61.0466 254.2 66.7416 249.308 78.631C238.328 105.607 235.434 107.605 230.343 121.793C224.553 137.778 220.361 149.368 221.858 164.555C222.956 175.245 226.45 184.537 231.94 198.824C234.136 204.519 237.63 213.012 241.822 226.1C244.817 235.292 246.114 240.587 245.116 247.181C244.717 250.179 243.619 256.873 238.328 262.667C233.038 268.462 226.45 270.161 224.354 270.66C220.062 271.659 215.57 271.659 204.789 270.66C203.292 270.56 200.497 270.261 197.003 269.461C192.611 268.462 188.319 266.564 188.519 265.665C188.718 264.766 193.909 266.564 200.397 264.466C202.394 263.766 206.386 262.468 208.882 258.771C212.076 253.975 210.778 248.38 210.279 246.082C208.483 238.289 202.693 234.193 201.495 233.493C199.299 231.995 195.307 229.397 190.316 230.196C183.927 231.195 180.733 236.99 179.835 238.589C177.339 242.985 177.439 247.181 177.539 250.778C177.738 258.971 179.735 264.166 181.831 267.663C184.227 271.759 186.722 274.357 189.916 275.356C194.009 276.655 197.802 275.856 198.101 276.855C198.301 277.454 197.203 278.154 196.305 278.853C193.011 281.75 192.512 286.146 191.913 290.942C191.114 297.436 192.811 297.936 191.414 302.732C190.815 304.73 189.916 307.927 187.121 309.825C184.626 311.524 181.831 311.424 179.535 311.424C172.947 311.224 165.361 311.024 159.472 311.624C152.684 312.323 153.083 313.522 144.099 314.521C139.608 315.021 136.314 315.021 136.214 315.82C136.114 316.919 142.602 318.518 143.001 318.618C147.693 319.717 150.089 319.417 157.375 320.116C165.061 320.816 166.758 321.415 167.856 322.914C169.054 324.412 169.054 326.111 169.054 329.008C169.054 331.206 168.954 337.501 164.562 343.096C162.466 345.694 160.27 347.192 158.773 348.191C154.98 350.689 153.682 350.19 150.887 352.088C145.796 355.385 143.8 360.78 143.301 362.279C141.704 366.775 142.702 368.773 142.303 374.568C142.103 376.666 141.404 384.659 137.511 391.853C132.521 401.244 124.236 405.64 120.542 407.639C112.257 412.035 104.871 412.734 101.377 413.034C92.7927 413.733 86.504 412.135 80.7145 410.636C73.7272 408.837 70.2336 407.938 68.0376 405.041C63.4459 399.046 66.3407 390.154 67.1392 387.856C68.7363 382.86 71.2318 380.063 75.9233 374.468C91.0958 356.484 67.8379 382.161 91.0957 355.884C106.967 337.9 109.862 334.903 115.851 328.009C122.938 319.817 128.927 312.923 135.515 303.931C143.301 293.24 154.381 278.054 163.065 256.073C166.858 246.582 170.851 236.291 172.748 221.704C174.145 210.714 176.042 194.628 169.254 176.844C167.058 171.049 163.963 162.956 156.976 154.963C144.099 140.076 143.9 139.877 143.9 139.877C140.406 136.18 138.41 134.281 137.911 130.984C137.112 125.09 141.903 119.994 143.101 118.695C145.297 116.397 147.194 115.298 153.083 112.301C161.668 108.005 167.058 105.507 171.15 103.509C179.335 99.6123 182.33 98.1137 187.82 96.7149C193.011 95.4161 196.205 95.3162 199.199 96.8148C202.394 98.4134 203.991 101.211 204.39 101.91C205.089 103.309 206.786 107.006 204.09 116.098C201.894 123.891 200.098 122.992 197.702 130.585C195.606 137.079 195.506 141.675 195.406 149.668C195.406 151.966 195.406 154.064 196.504 156.262C198.301 159.959 201.495 161.657 201.196 162.157C200.697 163.056 194.308 159.959 194.308 159.959C184.626 155.363 178.637 152.465 171.55 146.071C167.557 142.374 160.869 136.38 156.477 126.488C154.88 122.992 154.98 121.992 151.586 104.308C148.092 85.9245 146.795 80.6292 142.802 74.5346C139.109 68.9396 135.415 66.242 131.922 64.7433C128.029 63.1447 124.635 63.1448 123.138 63.1448C123.138 63.1448 110.96 63.1448 93.1919 59.1483C80.5149 56.3508 71.7309 49.8566 64.1446 44.1616C55.4604 37.6674 53.8633 34.3703 42.0847 26.2775C32.4023 19.6834 27.3115 17.7851 22.2208 18.7842C15.8324 20.083 12.0392 25.1785 11.8396 25.4782C9.14448 29.2749 8.94484 33.2713 8.84502 36.5684C8.14629 55.8512 10.4421 68.9396 10.4421 68.9396C11.1408 72.9361 12.6382 80.9289 15.533 91.02C18.6273 102.11 19.9249 103.509 24.9158 119.694C29.0084 132.983 29.9068 137.778 30.4059 140.976C31.404 146.97 32.3025 152.565 31.6038 159.959C31.0048 166.853 29.2081 171.848 25.8142 181.54C23.8178 187.135 23.3187 187.934 18.4276 199.723C9.14445 222.503 12.0392 217.208 7.74704 226.999C5.55103 232.095 4.15354 237.59 2.3568 242.785C1.65807 244.683 0.759776 247.381 1.05923 250.778C1.45851 254.275 2.95572 256.873 3.85408 258.271C5.65082 261.169 7.54745 262.767 11.0411 265.565C13.7362 267.763 17.13 270.46 22.4204 273.158C25.4149 274.657 29.0085 276.455 34.0992 277.454C35.4967 277.754 39.6891 277.954 44.9795 277.754C46.876 277.654 49.6709 277.454 50.5693 276.855C51.7671 276.055 52.2662 274.457 52.1664 273.158C51.8669 270.76 49.3714 269.761 47.7743 269.262C45.778 268.662 43.582 268.562 42.5838 268.462C36.1954 267.863 31.504 262.667 31.504 262.568C31.7036 262.268 36.8941 271.06 47.1755 273.658C50.4695 274.557 54.7617 275.656 58.7544 273.458C63.2463 271.06 65.043 266.864 66.0412 263.267C66.74 260.669 67.838 255.774 64.5439 249.08C63.4459 246.881 61.6492 243.984 52.965 239.388C46.5766 235.991 44.68 234.393 42.9831 231.096C40.9867 227.399 42.484 224.002 40.9867 223.302C38.9904 222.503 34.9976 227.299 32.7017 230.796C27.5112 238.689 26.8124 246.782 26.6128 249.279C26.4132 253.376 26.0138 260.469 29.9068 267.463C33.9993 274.757 42.1845 280.651 45.2789 282.15C45.5783 282.35 46.5766 282.75 47.475 283.649C49.2717 285.447 50.4694 287.945 50.7689 289.344C52.1664 295.938 52.1664 299.035 51.9668 303.531C51.867 307.128 51.4676 308.127 51.8669 311.124C52.1663 313.422 52.4659 315.62 53.9632 317.718C56.259 321.115 59.9522 322.114 60.8506 322.414C65.7417 323.713 69.7345 321.615 73.3279 320.316C86.8035 315.52 99.9796 321.415 99.9796 321.215C99.9796 321.016 90.8961 319.217 82.0122 320.316C76.7218 320.916 71.8307 322.015 68.1374 326.111C65.5421 329.008 62.9469 334.304 64.4441 339.199C65.9414 344.095 71.0321 346.793 76.8216 349.89C80.7145 351.988 81.2137 351.588 83.1102 353.187C87.5022 356.984 88.5004 362.679 89.0993 365.976C90.0975 371.97 88.9995 374.668 88.7 380.263C88.5004 383.36 88.3008 392.752 91.9941 401.844C96.985 414.333 107.067 420.827 110.461 422.925C112.657 424.324 119.644 428.42 129.526 429.919C131.522 430.218 133.419 430.318 143.6 430.019C163.364 429.319 166.758 428.42 174.045 430.019C179.635 431.218 185.025 432.516 188.619 437.312C192.312 442.308 192.013 448.302 191.813 451" stroke="#4C5C13" stroke-miterlimit="10" stroke-linecap="round" stroke-linejoin="round"/>
</svg>
